<?xml version="1.0" encoding="utf-8"?>
<!-- Generator: Adobe Illustrator 16.0.0, SVG Export Plug-In . SVG Version: 6.00 Build 0)  -->
<!DOCTYPE svg PUBLIC "-//W3C//DTD SVG 1.1//EN" "http://www.w3.org/Graphics/SVG/1.1/DTD/svg11.dtd">
<svg version="1.1" id="Layer_1" xmlns="http://www.w3.org/2000/svg" xmlns:xlink="http://www.w3.org/1999/xlink" x="0px" y="0px"
	 width="226.025px" height="252.229px" viewBox="0 0 226.025 252.229" enable-background="new 0 0 226.025 252.229"
	 xml:space="preserve">
<g>
	<path fill="#B5B5B5" stroke="#B5B5B5" stroke-miterlimit="10" d="M225.5,251.729H113H0.5c0-10.152,0.385-17.963,1.172-23.438
		c1.557-7.809,17.377-17.377,47.461-28.711c4.688-1.557,10.346-3.516,16.992-5.859c8.981-3.121,14.255-5.566,15.82-7.324
		c1.557-1.758,2.344-6.93,2.344-15.527c0-1.557,0-2.729,0-3.516c0-4.688-1.758-9.273-5.273-13.77
		c-3.516-4.486-6.253-12.396-8.203-23.73c-0.787-3.9-1.959-7.031-3.516-9.375c-1.565-2.344-3.131-7.031-4.688-14.062
		c-1.172-3.516-1.272-6.83-0.293-9.961c0.971-3.121,1.465-5.072,1.465-5.859c-0.787-6.244-1.565-12.689-2.344-19.336
		c-0.787-8.98,3.122-18.648,11.719-29.004C81.744,31.911,95.028,26.729,113,26.729c17.963,0,31.247,5.182,39.844,15.527
		c8.588,10.355,12.497,20.023,11.719,29.004c-0.787,6.646-1.565,13.092-2.344,19.336c0,0.787,0.485,2.738,1.465,5.859
		c0.971,3.131,0.879,6.445-0.293,9.961c-1.565,7.031-3.131,11.719-4.688,14.062c-1.565,2.344-2.737,5.475-3.516,9.375
		c-1.959,11.334-4.688,19.244-8.203,23.73c-3.516,4.496-5.273,9.082-5.273,13.77c0,11.719,1.172,18.365,3.516,19.922
		c0.778,0.787,10.346,4.496,28.711,11.133c0.778,0.395,1.758,0.787,2.93,1.172c30.075,11.334,45.896,20.902,47.461,28.711
		L225.5,251.729z"/>
</g>
<g>
	<path fill="#77CCA4" stroke="#77CCA4" stroke-miterlimit="10" d="M201.355,49.902l-0.2-2.6c-0.6-5.4,1.2-11.301,6.201-17.301
		c4.5-5.301,7-9.201,7-13.701c0-5.101-3.2-8.501-9.501-8.601c-3.6,0-7.6,1.2-10.101,3.101L192.355,4.5c3.3-2.4,9-4,14.301-4
		c11.501,0,16.701,7.101,16.701,14.7c0,6.801-3.801,11.701-8.601,17.401c-4.4,5.2-6.001,9.601-5.7,14.701l0.1,2.6H201.355z
		 M199.155,63.903c0-3.7,2.501-6.3,6.001-6.3s5.9,2.6,5.9,6.3c0,3.501-2.301,6.2-6.001,6.2
		C201.556,70.104,199.155,67.404,199.155,63.903z"/>
</g>
</svg>
