<?xml version="1.0" standalone="no"?>
<!DOCTYPE svg PUBLIC "-//W3C//DTD SVG 1.1//EN" "http://www.w3.org/Graphics/SVG/1.1/DTD/svg11.dtd" >
<svg xmlns="http://www.w3.org/2000/svg" xmlns:xlink="http://www.w3.org/1999/xlink" version="1.1">
<metadata></metadata>
<defs>
<font id="velodroma_basicregular" horiz-adv-x="737" >
<font-face units-per-em="2048" ascent="1638" descent="-410" />
<missing-glyph horiz-adv-x="512" />
<glyph horiz-adv-x="0" />
<glyph horiz-adv-x="682" />
<glyph unicode=" "  horiz-adv-x="512" />
<glyph unicode="&#x09;" horiz-adv-x="512" />
<glyph unicode="&#xa0;" horiz-adv-x="512" />
<glyph unicode="!" d="M205 0v369h327v-369h-327zM205 807v627h327v-627l-40 -291h-246z" />
<glyph unicode="$" horiz-adv-x="1456" d="M133 492h340q0 -114 63 -178t171 -64h86q93 0 144.5 40t51.5 113q0 25 -9.5 46.5t-22.5 36.5t-38.5 29t-44.5 22t-55 17.5t-56 14t-60 12.5t-56 11q-77 16 -130 29t-107.5 32t-89.5 41t-67 52.5t-49.5 69t-27.5 89t-10 113.5q0 181 101 293.5t284 142.5v262h328v-260 q203 -31 312.5 -159.5t102.5 -331.5h-340q4 102 -48.5 160.5t-145.5 58.5h-86q-83 -3 -128.5 -36.5t-45.5 -96.5q0 -54 20.5 -85t80 -54.5t175.5 -41.5q57 -9 95 -16t89.5 -19.5t85.5 -25t75.5 -32t68.5 -42t54.5 -54t43 -69t25.5 -85.5t10 -105q0 -189 -111.5 -305 t-312.5 -142v-260h-328v265q-213 32 -328.5 167t-109.5 345z" />
<glyph unicode="&#x26;" horiz-adv-x="1675" d="M164 438q0 383 309 445l-248 344v207h1004v-306h-565l196 -301v-204h-92q-258 0 -258 -185q0 -182 238 -182h83q120 0 179 62.5t59 195.5v342h565v-274h-219v-68q0 -276 -137.5 -410.5t-411.5 -134.5h-153q-549 0 -549 469z" />
<glyph unicode="+" horiz-adv-x="1413" d="M205 584v286h358v359h287v-359h358v-286h-358v-359h-287v359h-358z" />
<glyph unicode="," horiz-adv-x="741" d="M205 -184h53q56 0 83.5 31t27.5 98v55h-160v369h328v-471q0 -224 -238 -224h-92z" />
<glyph unicode="." d="M205 0v369h327v-369h-327z" />
<glyph unicode="/" horiz-adv-x="1105" d="M61 0l656 1434h327l-655 -1434h-328z" />
<glyph unicode="0" horiz-adv-x="1720" d="M143 717q0 366 177 556.5t522 190.5h37q345 0 521.5 -190.5t176.5 -556.5q0 -370 -179 -568t-519 -180h-37q-344 0 -521.5 191.5t-177.5 556.5zM485 717q0 -439 369 -445h10q184 3 277.5 115.5t93.5 329.5q0 218 -93 332t-276 114h-12q-184 0 -276.5 -113.5t-92.5 -332.5 zM698 575v287h326v-287h-326z" />
<glyph unicode="1" horiz-adv-x="1323" d="M82 0v287h506v510h-393v307h133q260 0 260 207v121h327v-1145h347v-287h-1180z" />
<glyph unicode="2" horiz-adv-x="1390" d="M123 0v117q0 90 12.5 164.5t33 131.5t57 105t75 82.5t96 67t111 55.5t129.5 51q21 8 57.5 21t53.5 19t45 17.5t41 20t31.5 22t27 27t17.5 32t12.5 40.5t3.5 49q0 79 -54 120.5t-159 41.5h-4q-112 0 -169 -58.5t-57 -171.5h-348q0 261 140 385.5t421 124.5h27 q267 0 406 -103.5t139 -301.5q0 -92 -12 -162t-37 -119.5t-56 -85t-78.5 -63t-93 -47t-109.5 -44.5q-25 -9 -38 -14t-38 -15q-161 -63 -209 -95q-74 -50 -85 -127h756v-287h-1145z" />
<glyph unicode="3" horiz-adv-x="1409" d="M123 459h346q0 -203 233 -203h27q88 0 139.5 43.5t51.5 132.5q0 168 -146 168h-156l3 270l16 7q89 33 142 99.5t71 158.5h-363v-160h-346v459h1110q0 -418 -233 -592q248 -80 248 -414q0 -226 -140 -342.5t-415 -116.5h-23q-279 0 -422 125t-143 365z" />
<glyph unicode="4" horiz-adv-x="1452" d="M82 244v176q0 77 17.5 148.5t44 129t76 126t93.5 120t117 129.5q11 11 49.5 53t50 54.5t40.5 46.5t38.5 51.5t25 45.5t20.5 52t5 49v9h349v-7q0 -75 -18 -141.5t-45 -114t-69 -97t-79 -83t-87.5 -80.5t-82.5 -82q-42 -46 -65 -73t-53.5 -67.5t-45.5 -76.5t-19 -71h426 v268h328v-268h172v-297h-172v-244h-328v244h-788z" />
<glyph unicode="5" horiz-adv-x="1429" d="M123 428h366q-3 -89 51 -134.5t162 -45.5h15q110 1 166.5 51.5t56.5 146.5q0 93 -59.5 145t-161.5 52h-12q-126 0 -211 -63l-359 112l86 742h1000v-437h-367v154h-326l-41 -293q91 62 275 62h18q260 0 392.5 -116t132.5 -345q0 -240 -141.5 -365t-420.5 -125h-26 q-299 0 -449 117.5t-147 341.5z" />
<glyph unicode="6" horiz-adv-x="1460" d="M113 717q0 373 142.5 560t436.5 187h62q277 0 418 -112.5t141 -333.5h-350q0 80 -53 121t-156 41h-62q-110 0 -175.5 -81t-80.5 -237q97 88 301 88h49q278 3 420 -114.5t142 -352.5q0 -255 -145 -384.5t-429 -129.5h-61q-305 0 -452.5 187t-147.5 561zM473 471 q0 -106 64 -160.5t190 -54.5h37q233 0 233 207q0 217 -233 217h-57q-115 0 -174.5 -53t-59.5 -156z" />
<glyph unicode="7" horiz-adv-x="1253" d="M102 938v496h1090v-117q0 -156 -14.5 -261.5t-54.5 -195t-96.5 -158.5t-154.5 -161q-242 -225 -245 -527v-14h-344v16q0 57 4 108t15.5 98.5t22 86t33 81t38 72t48.5 71t52 66t61 68.5t65 66.5t72 71.5q88 86 112.5 158t24.5 184h-362v-209h-367z" />
<glyph unicode="8" horiz-adv-x="1499" d="M123 428q0 253 186 348q-131 93 -131 297q0 193 134 292t395 99h86q261 0 394.5 -99t133.5 -292q0 -204 -131 -297q186 -95 186 -348q0 -227 -149.5 -343t-442.5 -116h-69q-293 0 -442.5 116t-149.5 343zM469 428q0 -178 256 -178h49q256 0 256 178q0 195 -256 195h-49 q-256 0 -256 -195zM512 1028q0 -158 215 -158h45q215 0 215 158q0 82 -54.5 125.5t-160.5 46.5h-45q-106 -3 -160.5 -46.5t-54.5 -125.5z" />
<glyph unicode="9" horiz-adv-x="1460" d="M113 961q0 248 144.5 375.5t428.5 127.5h62q305 0 452.5 -186.5t147.5 -560.5q0 -373 -143 -560.5t-437 -187.5h-61q-277 0 -418.5 113t-141.5 334h351q0 -80 53 -121t156 -41h61q110 0 175.5 86.5t80.5 251.5q-96 -87 -301 -90h-49q-278 -1 -419.5 115t-141.5 344z M463 981q0 -100 59 -153.5t174 -53.5h58q115 0 174 51.5t59 147.5q0 99 -64.5 152t-189.5 53h-37q-115 0 -174 -50.5t-59 -146.5z" />
<glyph unicode=":" d="M205 188v369h327v-369h-327zM205 846v368h327v-368h-327z" />
<glyph unicode=";" horiz-adv-x="1228" d="M205 -184h53q56 0 83.5 31t27.5 98v55h-160v369h328v-471q0 -224 -238 -224h-92zM205 655v369h327v-369h-327z" />
<glyph unicode="=" horiz-adv-x="1310" d="M205 395v267h901v-267h-901zM205 784v267h901v-267h-901z" />
<glyph unicode="?" horiz-adv-x="1337" d="M143 995q0 231 134 350t391 119h22q248 0 376 -98t128 -285q0 -55 -4.5 -97t-18 -76t-25.5 -56t-38.5 -47.5t-45 -39.5t-57.5 -42q-3 -2 -5 -3.5t-4.5 -3t-4.5 -3.5q-19 -14 -52.5 -36.5t-50.5 -34.5t-40 -32.5t-34 -38t-19.5 -43t-8.5 -55.5h-327q0 79 17 140.5t52 106 t73.5 75t96.5 63.5q85 49 119.5 96t34.5 111q0 136 -164 139h-20q-85 0 -130.5 -53.5t-45.5 -155.5h-349zM457 0v369h327v-369h-327z" />
<glyph unicode="@" horiz-adv-x="2045" d="M164 0v717q0 394 182 573.5t565 179.5h205q383 0 565.5 -179.5t182.5 -573.5l-4 -717h-359v104q-38 -63 -116.5 -98t-176.5 -35q-131 0 -216.5 27.5t-135 90.5t-69 151t-19.5 223t19.5 223t69 150.5t135 90t216.5 27.5q96 0 173 -32.5t116 -92.5q-10 103 -39.5 170 t-85.5 106t-130.5 54t-186.5 15h-82q-126 0 -205.5 -19t-136.5 -70t-81 -140t-24 -228v-717h-362zM1051 463q0 -141 50.5 -201t178.5 -59q96 0 151 54.5t70 137.5v135q-15 83 -70 138t-151 55q-128 0 -178.5 -60t-50.5 -200z" />
<glyph unicode="A" horiz-adv-x="1454" d="M20 0l512 1434h369l533 -1434h-349l-81 244h-558l-77 -244h-349zM537 520h374l-190 582z" />
<glyph unicode="B" horiz-adv-x="1390" d="M205 0v1434h510q220 0 345.5 -104t125.5 -286q0 -97 -34.5 -170t-94.5 -104q98 -40 154.5 -131t56.5 -211q0 -203 -125.5 -315.5t-366.5 -112.5h-571zM528 268h230q83 0 131.5 47t48.5 129t-48.5 129.5t-131.5 47.5h-230v-353zM530 852h191q62 0 97.5 41.5t35.5 114.5 t-35.5 114t-97.5 41h-191v-311z" />
<glyph unicode="C" horiz-adv-x="1617" d="M123 717q0 347 172 547t471 200h61q292 0 459.5 -148t167.5 -405h-346q0 121 -75 190.5t-206 69.5h-61q-140 0 -220.5 -121t-80.5 -333t80.5 -333.5t220.5 -121.5h61q131 0 206 69.5t75 190.5h346q0 -257 -167.5 -405t-459.5 -148h-61q-299 0 -471 200.5t-172 547.5z" />
<glyph unicode="D" horiz-adv-x="1572" d="M205 0v1434h428q379 0 598 -192t219 -525t-219 -525t-598 -192h-428zM532 287h101q221 0 348 115t127 315t-127 315t-348 115h-101v-860z" />
<glyph unicode="E" horiz-adv-x="1345" d="M205 0v1434h977v-287h-650v-266h568v-287h-568v-307h650v-287h-977z" />
<glyph unicode="F" horiz-adv-x="1222" d="M205 0v1434h936v-287h-609v-307h506v-287h-506v-553h-327z" />
<glyph unicode="G" horiz-adv-x="1671" d="M123 717q0 349 175.5 548t489.5 199h62q294 0 464.5 -137.5t170.5 -374.5h-346q0 101 -77.5 159t-211.5 58h-62q-154 0 -238.5 -120t-84.5 -332t89.5 -333.5t244.5 -121.5h61q143 0 225 72t82 196h-430v250h770v-188q0 -286 -173 -452t-474 -171h-61q-315 0 -495.5 200 t-180.5 548z" />
<glyph unicode="H" horiz-adv-x="1597" d="M205 0v1434h327v-574h533v574h328v-1434h-328v573h-533v-573h-327z" />
<glyph unicode="I" d="M205 0v1434h327v-1434h-327z" />
<glyph unicode="J" horiz-adv-x="1495" d="M143 524h334q0 -116 59.5 -188t176.5 -72h32q54 0 94 12.5t65.5 38.5t41.5 56.5t24 78.5t10.5 91t2.5 106v500h-840v287h1168v-787q0 -352 -130.5 -514t-424.5 -162h-54q-559 0 -559 553z" />
<glyph unicode="K" horiz-adv-x="1523" d="M205 0v1434h327v-553h183l395 553h373l-492 -695l502 -739h-387l-395 573h-179v-573h-327z" />
<glyph unicode="L" horiz-adv-x="1120" d="M205 0v1434h327v-1147h527v-287h-854z" />
<glyph unicode="M" horiz-adv-x="2007" d="M205 0v1434h327l472 -852l471 852h327v-1434h-317v840l-359 -625h-245l-359 625v-840h-317z" />
<glyph unicode="N" horiz-adv-x="1597" d="M205 0v1434h327l543 -916v916h318v-1434h-328l-543 930v-930h-317z" />
<glyph unicode="O" horiz-adv-x="1699" d="M123 717q0 346 188.5 546.5t507.5 200.5h62q319 0 507.5 -200.5t188.5 -546.5t-188.5 -547t-507.5 -201h-62q-319 0 -507.5 201t-188.5 547zM465 717q0 -210 97 -332.5t257 -122.5h62q160 0 257 122.5t97 332.5q0 209 -97 331.5t-257 122.5h-62q-160 0 -257 -122.5 t-97 -331.5z" />
<glyph unicode="P" horiz-adv-x="1361" d="M205 0v1434h481q267 0 420.5 -144t153.5 -393q0 -255 -153.5 -401t-420.5 -146h-154v-350h-327zM532 637h154q106 0 166.5 68t60.5 188q0 118 -60.5 186t-166.5 68h-154v-510z" />
<glyph unicode="Q" horiz-adv-x="1740" d="M123 717q0 348 192 547.5t525 199.5h61q333 0 525 -199.5t192 -547.5q0 -211 -75.5 -372.5t-213.5 -256.5l211 -338h-369l-153 225q-56 -6 -117 -6h-61q-333 0 -525 200.5t-192 547.5zM465 717q0 -212 100.5 -333.5t274.5 -121.5h61q174 0 274.5 121.5t100.5 333.5 t-100.5 333t-274.5 121h-61q-174 0 -274.5 -121t-100.5 -333z" />
<glyph unicode="R" horiz-adv-x="1464" d="M205 0v1434h543q256 0 404 -135.5t148 -370.5q0 -140 -52.5 -248t-151.5 -174l266 -506h-377l-217 412h-236v-412h-327zM532 698h216q96 0 151 60.5t55 165.5q0 104 -54.5 163.5t-151.5 59.5h-216v-449z" />
<glyph unicode="S" horiz-adv-x="1456" d="M133 492h340q0 -114 63 -178t171 -64h86q93 0 144.5 40t51.5 113q0 25 -9.5 46.5t-22.5 36.5t-38.5 29t-44.5 22t-55 17.5t-56 14t-60 12.5t-56 11q-77 16 -130 29t-107.5 32t-89.5 41t-67 52.5t-49.5 69t-27.5 89t-10 113.5q0 211 136.5 328.5t375.5 117.5h82 q256 0 399 -134q135 -126 135 -341v-24h-340v14q0 93 -48 147q-52 58 -146 58h-86q-83 -3 -128.5 -36.5t-45.5 -96.5q0 -54 20.5 -85t80 -54.5t175.5 -41.5q57 -9 95 -16t89.5 -19.5t85.5 -25t75.5 -32t68.5 -42t54.5 -54t43 -69t25.5 -85.5t10 -105q0 -214 -142.5 -333.5 t-392.5 -119.5h-81q-275 0 -429 140q-146 133 -145 359v24z" />
<glyph unicode="T" horiz-adv-x="1187" d="M41 1147v287h1106v-287h-389v-1147h-328v1147h-389z" />
<glyph unicode="U" horiz-adv-x="1630" d="M184 602v832h328v-811q0 -165 75.5 -261t205.5 -96h61q123 0 193.5 95.5t70.5 261.5v811h328v-832q0 -302 -156.5 -467.5t-435.5 -165.5h-61q-286 0 -447.5 165.5t-161.5 467.5z" />
<glyph unicode="V" horiz-adv-x="1454" d="M20 1434h369l340 -1049l336 1049h369l-523 -1434h-368z" />
<glyph unicode="W" horiz-adv-x="2293" d="M82 1434h348l160 -1049l373 1049h368l373 -1047l162 1047h346l-293 -1434h-377l-393 1073l-397 -1073h-377z" />
<glyph unicode="X" horiz-adv-x="1452" d="M41 0l485 733l-473 701h396l274 -478l6 11l275 467h387l-476 -697l496 -737h-387l-301 496l-6 -11l-289 -485h-387z" />
<glyph unicode="Y" horiz-adv-x="1378" d="M20 1434h396l276 -539l285 539h381l-502 -854v-580h-328v580z" />
<glyph unicode="Z" horiz-adv-x="1306" d="M96 0v246l678 901h-655v287h1085v-246l-682 -901h680v-287h-1106z" />
<glyph unicode="\" horiz-adv-x="1105" d="M61 1434h328l655 -1434h-327z" />
<glyph unicode="a" horiz-adv-x="1454" d="M20 0l512 1434h369l533 -1434h-349l-81 244h-558l-77 -244h-349zM537 520h374l-190 582z" />
<glyph unicode="b" horiz-adv-x="1390" d="M205 0v1434h510q220 0 345.5 -104t125.5 -286q0 -97 -34.5 -170t-94.5 -104q98 -40 154.5 -131t56.5 -211q0 -203 -125.5 -315.5t-366.5 -112.5h-571zM528 268h230q83 0 131.5 47t48.5 129t-48.5 129.5t-131.5 47.5h-230v-353zM530 852h191q62 0 97.5 41.5t35.5 114.5 t-35.5 114t-97.5 41h-191v-311z" />
<glyph unicode="c" horiz-adv-x="1617" d="M123 717q0 347 172 547t471 200h61q292 0 459.5 -148t167.5 -405h-346q0 121 -75 190.5t-206 69.5h-61q-140 0 -220.5 -121t-80.5 -333t80.5 -333.5t220.5 -121.5h61q131 0 206 69.5t75 190.5h346q0 -257 -167.5 -405t-459.5 -148h-61q-299 0 -471 200.5t-172 547.5z" />
<glyph unicode="d" horiz-adv-x="1572" d="M205 0v1434h428q379 0 598 -192t219 -525t-219 -525t-598 -192h-428zM532 287h101q221 0 348 115t127 315t-127 315t-348 115h-101v-860z" />
<glyph unicode="e" horiz-adv-x="1345" d="M205 0v1434h977v-287h-650v-266h568v-287h-568v-307h650v-287h-977z" />
<glyph unicode="f" horiz-adv-x="1222" d="M205 0v1434h936v-287h-609v-307h506v-287h-506v-553h-327z" />
<glyph unicode="g" horiz-adv-x="1671" d="M123 717q0 349 175.5 548t489.5 199h62q294 0 464.5 -137.5t170.5 -374.5h-346q0 101 -77.5 159t-211.5 58h-62q-154 0 -238.5 -120t-84.5 -332t89.5 -333.5t244.5 -121.5h61q143 0 225 72t82 196h-430v250h770v-188q0 -286 -173 -452t-474 -171h-61q-315 0 -495.5 200 t-180.5 548z" />
<glyph unicode="h" horiz-adv-x="1597" d="M205 0v1434h327v-574h533v574h328v-1434h-328v573h-533v-573h-327z" />
<glyph unicode="i" d="M205 0v1434h327v-1434h-327z" />
<glyph unicode="j" horiz-adv-x="1495" d="M143 524h334q0 -116 59.5 -188t176.5 -72h32q54 0 94 12.5t65.5 38.5t41.5 56.5t24 78.5t10.5 91t2.5 106v500h-840v287h1168v-787q0 -352 -130.5 -514t-424.5 -162h-54q-559 0 -559 553z" />
<glyph unicode="k" horiz-adv-x="1523" d="M205 0v1434h327v-553h183l395 553h373l-492 -695l502 -739h-387l-395 573h-179v-573h-327z" />
<glyph unicode="l" horiz-adv-x="1120" d="M205 0v1434h327v-1147h527v-287h-854z" />
<glyph unicode="m" horiz-adv-x="2007" d="M205 0v1434h327l472 -852l471 852h327v-1434h-317v840l-359 -625h-245l-359 625v-840h-317z" />
<glyph unicode="n" horiz-adv-x="1597" d="M205 0v1434h327l543 -916v916h318v-1434h-328l-543 930v-930h-317z" />
<glyph unicode="o" horiz-adv-x="1699" d="M123 717q0 346 188.5 546.5t507.5 200.5h62q319 0 507.5 -200.5t188.5 -546.5t-188.5 -547t-507.5 -201h-62q-319 0 -507.5 201t-188.5 547zM465 717q0 -210 97 -332.5t257 -122.5h62q160 0 257 122.5t97 332.5q0 209 -97 331.5t-257 122.5h-62q-160 0 -257 -122.5 t-97 -331.5z" />
<glyph unicode="p" horiz-adv-x="1361" d="M205 0v1434h481q267 0 420.5 -144t153.5 -393q0 -255 -153.5 -401t-420.5 -146h-154v-350h-327zM532 637h154q106 0 166.5 68t60.5 188q0 118 -60.5 186t-166.5 68h-154v-510z" />
<glyph unicode="q" horiz-adv-x="1740" d="M123 717q0 348 192 547.5t525 199.5h61q333 0 525 -199.5t192 -547.5q0 -211 -75.5 -372.5t-213.5 -256.5l211 -338h-369l-153 225q-56 -6 -117 -6h-61q-333 0 -525 200.5t-192 547.5zM465 717q0 -212 100.5 -333.5t274.5 -121.5h61q174 0 274.5 121.5t100.5 333.5 t-100.5 333t-274.5 121h-61q-174 0 -274.5 -121t-100.5 -333z" />
<glyph unicode="r" horiz-adv-x="1464" d="M205 0v1434h543q256 0 404 -135.5t148 -370.5q0 -140 -52.5 -248t-151.5 -174l266 -506h-377l-217 412h-236v-412h-327zM532 698h216q96 0 151 60.5t55 165.5q0 104 -54.5 163.5t-151.5 59.5h-216v-449z" />
<glyph unicode="s" horiz-adv-x="1456" d="M133 492h340q0 -114 63 -178t171 -64h86q93 0 144.5 40t51.5 113q0 25 -9.5 46.5t-22.5 36.5t-38.5 29t-44.5 22t-55 17.5t-56 14t-60 12.5t-56 11q-77 16 -130 29t-107.5 32t-89.5 41t-67 52.5t-49.5 69t-27.5 89t-10 113.5q0 211 136.5 328.5t375.5 117.5h82 q256 0 399 -134q135 -126 135 -341v-24h-340v14q0 93 -48 147q-52 58 -146 58h-86q-83 -3 -128.5 -36.5t-45.5 -96.5q0 -54 20.5 -85t80 -54.5t175.5 -41.5q57 -9 95 -16t89.5 -19.5t85.5 -25t75.5 -32t68.5 -42t54.5 -54t43 -69t25.5 -85.5t10 -105q0 -214 -142.5 -333.5 t-392.5 -119.5h-81q-275 0 -429 140q-146 133 -145 359v24z" />
<glyph unicode="t" horiz-adv-x="1187" d="M41 1147v287h1106v-287h-389v-1147h-328v1147h-389z" />
<glyph unicode="u" horiz-adv-x="1630" d="M184 602v832h328v-811q0 -165 75.5 -261t205.5 -96h61q123 0 193.5 95.5t70.5 261.5v811h328v-832q0 -302 -156.5 -467.5t-435.5 -165.5h-61q-286 0 -447.5 165.5t-161.5 467.5z" />
<glyph unicode="v" horiz-adv-x="1454" d="M20 1434h369l340 -1049l336 1049h369l-523 -1434h-368z" />
<glyph unicode="w" horiz-adv-x="2293" d="M82 1434h348l160 -1049l373 1049h368l373 -1047l162 1047h346l-293 -1434h-377l-393 1073l-397 -1073h-377z" />
<glyph unicode="x" horiz-adv-x="1452" d="M41 0l485 733l-473 701h396l274 -478l6 11l275 467h387l-476 -697l496 -737h-387l-301 496l-6 -11l-289 -485h-387z" />
<glyph unicode="y" horiz-adv-x="1378" d="M20 1434h396l276 -539l285 539h381l-502 -854v-580h-328v580z" />
<glyph unicode="z" horiz-adv-x="1306" d="M96 0v246l678 901h-655v287h1085v-246l-682 -901h680v-287h-1106z" />
<glyph unicode="&#xa2;" horiz-adv-x="1415" d="M141 616q0 221 111 378.5t299 207.5v232h328v-230q180 -41 285.5 -169t105.5 -306h-346q0 94 -53.5 152.5t-147.5 58.5h-21q-101 0 -160 -90t-59 -234t59 -233.5t160 -89.5h21q94 0 147.5 64t53.5 167h346q0 -186 -105.5 -319t-285.5 -174v-236h-328v236 q-188 50 -299 207.5t-111 377.5z" />
<glyph unicode="&#x2000;" horiz-adv-x="858" />
<glyph unicode="&#x2001;" horiz-adv-x="1716" />
<glyph unicode="&#x2002;" horiz-adv-x="858" />
<glyph unicode="&#x2003;" horiz-adv-x="1716" />
<glyph unicode="&#x2004;" horiz-adv-x="572" />
<glyph unicode="&#x2005;" horiz-adv-x="429" />
<glyph unicode="&#x2006;" horiz-adv-x="286" />
<glyph unicode="&#x2007;" horiz-adv-x="286" />
<glyph unicode="&#x2008;" horiz-adv-x="214" />
<glyph unicode="&#x2009;" horiz-adv-x="343" />
<glyph unicode="&#x200a;" horiz-adv-x="95" />
<glyph unicode="&#x202f;" horiz-adv-x="343" />
<glyph unicode="&#x205f;" horiz-adv-x="429" />
<glyph unicode="&#x25fc;" horiz-adv-x="1433" d="M0 0v1434h1434v-1434h-1434z" />
</font>
</defs>
</svg>
